<svg id="Laag_1" data-name="Laag 1" xmlns="http://www.w3.org/2000/svg" xmlns:xlink="http://www.w3.org/1999/xlink" viewBox="0 0 1528.18 540.28"><defs><style>.cls-1{fill:#666;}.cls-2{fill:url(#wit);}.cls-3{fill:url(#Naamloos_verloop_12);}.cls-4{fill:url(#Naamloos_verloop_13);}.cls-5{fill:url(#Naamloos_verloop_14);}.cls-6{fill:url(#Naamloos_verloop_15);}.cls-7{fill:url(#Naamloos_verloop_16);}.cls-8{fill:url(#Naamloos_verloop_6);}.cls-9{fill:#181716;}.cls-11,.cls-12,.cls-13,.cls-15,.cls-9{opacity:0.2;}.cls-10{fill:url(#Naamloos_verloop_3);}.cls-12{fill:url(#Naamloos_verloop_10);}.cls-13{fill:url(#Naamloos_verloop_10-2);}.cls-14{fill:url(#wit-2);}.cls-15{fill:#fff;}.cls-16{fill:none;}</style><linearGradient id="wit" x1="21.2" y1="110.91" x2="489.79" y2="110.91" gradientUnits="userSpaceOnUse"><stop offset="0" stop-color="#dd7f33"/><stop offset="1" stop-color="#e59f5b"/></linearGradient><linearGradient id="Naamloos_verloop_12" x1="46.76" y1="123.51" x2="494.01" y2="99.29" gradientUnits="userSpaceOnUse"><stop offset="0" stop-color="#c96214"/><stop offset="1" stop-color="#dc994e"/></linearGradient><linearGradient id="Naamloos_verloop_13" x1="246.61" y1="2246.1" x2="273.93" y2="2371.38" gradientTransform="translate(510.75 2591.83) rotate(180)" gradientUnits="userSpaceOnUse"><stop offset="0" stop-color="#546427"/><stop offset="1" stop-color="#a8c451"/></linearGradient><linearGradient id="Naamloos_verloop_14" x1="95.81" y1="291.11" x2="423.88" y2="277.93" gradientUnits="userSpaceOnUse"><stop offset="0" stop-color="#526025"/><stop offset="1" stop-color="#a9c843"/></linearGradient><linearGradient id="Naamloos_verloop_15" x1="373.43" y1="2148.7" x2="141.57" y2="2145.05" gradientTransform="translate(510.75 2591.83) rotate(180)" gradientUnits="userSpaceOnUse"><stop offset="0" stop-color="#49a0d2"/><stop offset="1" stop-color="#3d8ac4"/></linearGradient><linearGradient id="Naamloos_verloop_16" x1="249.91" y1="511.76" x2="239.52" y2="376.68" gradientUnits="userSpaceOnUse"><stop offset="0" stop-color="#2677b1"/><stop offset="1" stop-color="#64b6e7"/></linearGradient><linearGradient id="Naamloos_verloop_6" x1="147.08" y1="320.07" x2="309.21" y2="428.6" gradientUnits="userSpaceOnUse"><stop offset="0" stop-color="#4f672a"/><stop offset="1" stop-color="#24506d"/></linearGradient><linearGradient id="Naamloos_verloop_3" x1="123.52" y1="117" x2="312.12" y2="276.94" gradientUnits="userSpaceOnUse"><stop offset="0" stop-color="#764015"/><stop offset="1" stop-color="#5a6b25"/></linearGradient><linearGradient id="Naamloos_verloop_10" x1="114.84" y1="353.2" x2="261.65" y2="353.2" gradientUnits="userSpaceOnUse"><stop offset="0"/><stop offset="0.86"/><stop offset="1"/></linearGradient><linearGradient id="Naamloos_verloop_10-2" x1="66.35" y1="174.86" x2="266.6" y2="174.86" xlink:href="#Naamloos_verloop_10"/><linearGradient id="wit-2" x1="69.09" y1="200.85" x2="69.09" y2="200.85" xlink:href="#wit"/></defs><rect class="cls-1" x="528.03" y="368.68" width="975.85" height="3"/><path class="cls-1" d="M548.2,189H528.1v131.2h38.7V207.61C566.8,195.11,560.7,189,548.2,189Z" transform="translate(0.08 0.37)"/><path class="cls-1" d="M1438.7,164c-46.8.3-70.4,26.5-70.4,78.8a129.1,129.1,0,0,0,3.5,31.3q10.8,44.1,57.6,49h.4a26.42,26.42,0,0,0,2.9.2c.6,0,1.2.1,1.9.1.5,0,1,.1,1.6.1s1.3.1,2,.1h1.4c37.2,0,59.3-16.6,66-50h-42.2c-4.7,10.5-12.8,16-25,16-17.9,0-27.9-11.9-30.1-35.5h99.4Q1512,164,1438.7,164Zm-29.9,62.6c2.9-20.4,12.8-30.8,29.4-30.8s26.2,10.5,28.5,30.8Z" transform="translate(0.08 0.37)"/><path class="cls-1" d="M625.8,143.71v176.5h39.9v-87.5h39.9c11.3,0,21.2-9,21.2-20.4v-13.1H665.6v-42.5h87.1v-34.3H646.2C634.9,122.41,625.8,132.31,625.8,143.71Z" transform="translate(0.08 0.37)"/><path class="cls-1" d="M823.9,164c-46.5,0-69.8,26.5-69.8,80,0,52.9,23.3,79.7,69.8,79.7S894,296.91,894,244C894,190.51,870.5,164,823.9,164Zm-.3,125.1c-19.8,0-30-15.1-30.2-45.1,0-30.5,10.2-46,30.5-46,19.8,0,29.7,14.8,29.7,44.8C853.3,273.41,843.4,289.11,823.6,289.11Z" transform="translate(0.08 0.37)"/><path class="cls-1" d="M1273.9,198.11c12.2,0,20.4,5.5,25,16h42.2c-6.7-33.5-28.8-50-66-50-47.4.9-71,27.3-71,80,1.2,52.9,25,79.7,71.6,79.7,35.8.9,58.5-19.2,65.5-50.6h-29.1a18.25,18.25,0,0,0-13.1,5.5c-6.4,7.3-14.3,11.1-23.3,11.1-21.5.3-32.3-15.1-32.3-45.7S1253.5,198.11,1273.9,198.11Z" transform="translate(0.08 0.37)"/><path class="cls-1" d="M1094.5,240.81v79.4h39.3v-80c0-22.4,10.8-33.7,32.3-33.7h13.1v-40.1h-5.5Q1096.3,166.26,1094.5,240.81Z" transform="translate(0.08 0.37)"/><path class="cls-1" d="M1018.2,185.51v81.1c0,17.2-8.7,25.6-26.2,25.6s-26.2-8.4-26.2-25.6V166.31H927.1v92.5c0,25.9,6.7,42.8,20.1,51.2a77.79,77.79,0,0,0,43.6,13.1,90.21,90.21,0,0,0,45.4-11.9c13.7-8.4,20.4-25.9,20.4-52.4v-92.5h-19.8C1024,166.31,1017.9,172.81,1018.2,185.51Z" transform="translate(0.08 0.37)"/><path class="cls-1" d="M547.1,167.91a22.7,22.7,0,1,0-22.7-22.7,22.75,22.75,0,0,0,22.7,22.7" transform="translate(0.08 0.37)"/><path class="cls-1" d="M1501.4,441.21c-1.3-1.5-3.8-2.8-7.3-4.1a24.21,24.21,0,0,1-4.7-2.1,5.59,5.59,0,0,1-2.2-2.1,6,6,0,0,1-.6-2.9,4.33,4.33,0,0,1,1.8-3.7,7.92,7.92,0,0,1,4.9-1.3,20.52,20.52,0,0,1,8.1,1.8l1.2-3.4a23.37,23.37,0,0,0-9.3-1.8,12.68,12.68,0,0,0-7.8,2.3,7.28,7.28,0,0,0-2.9,6.2,8.86,8.86,0,0,0,2,6,16,16,0,0,0,6.7,4,39.71,39.71,0,0,1,5,2.1,6.28,6.28,0,0,1,2.4,2.1,5.2,5.2,0,0,1,.7,2.9,5,5,0,0,1-2,4.2c-1.3,1-3.3,1.5-5.9,1.5a28.09,28.09,0,0,1-4.9-.5,21.46,21.46,0,0,1-4.5-1.4v3.8a22.54,22.54,0,0,0,9.3,1.6c3.7,0,6.6-.8,8.8-2.5a8.24,8.24,0,0,0,3.2-7,7.65,7.65,0,0,0-2-5.7m-49.5-15.7h5.1q4.35,0,6.3,1.5a5.7,5.7,0,0,1,2,4.8,6.21,6.21,0,0,1-1.9,5c-1.3,1.1-3.3,1.7-6.1,1.7h-5.4Zm7,16.3,8.2,14.1h4.6l-9.2-15.2c4.5-1.6,6.8-4.6,6.8-9.1q0-4.8-3-7.2c-2-1.6-5-2.4-9.2-2.4h-9.3v33.8h3.9v-14.1h7.2ZM1428,422v22a8.87,8.87,0,0,1-2.3,6.5,9,9,0,0,1-6.6,2.3c-3,0-5.3-.8-6.8-2.3a8.87,8.87,0,0,1-2.3-6.5v-22.1h-3.9v21.8c0,3.9,1.1,6.9,3.3,9.2s5.4,3.3,9.4,3.3,7.3-1.1,9.6-3.3,3.5-5.2,3.5-9.1v-21.9H1428Zm-36.2,30.3h-14.9v-12.4h14v-3.5h-14v-10.9h14.9V422h-18.9v33.8h18.9Zm-34.9-11.1c-1.3-1.5-3.8-2.8-7.3-4.1a24.21,24.21,0,0,1-4.7-2.1,5.59,5.59,0,0,1-2.2-2.1,6,6,0,0,1-.6-2.9,4.33,4.33,0,0,1,1.8-3.7,7.92,7.92,0,0,1,4.9-1.3,20.52,20.52,0,0,1,8.1,1.8l1.2-3.4a23.37,23.37,0,0,0-9.3-1.8,12.68,12.68,0,0,0-7.8,2.3,7.28,7.28,0,0,0-2.9,6.2,8.86,8.86,0,0,0,2,6,16,16,0,0,0,6.7,4,39.71,39.71,0,0,1,5,2.1,6.28,6.28,0,0,1,2.4,2.1,5.73,5.73,0,0,1-1.3,7.1c-1.3,1-3.3,1.5-5.9,1.5a28.09,28.09,0,0,1-4.9-.5,21.46,21.46,0,0,1-4.5-1.4v3.8a22.54,22.54,0,0,0,9.3,1.6c3.7,0,6.6-.8,8.8-2.5a8.24,8.24,0,0,0,3.2-7,8.07,8.07,0,0,0-2-5.7M1323.4,422h-3.9v33.8h3.9Zm-27.6,21.8a70.79,70.79,0,0,0-2.2,7.5,54,54,0,0,0-2.1-7.3l-7.8-21.9h-4.2l12.1,33.8h3.9l12.2-33.8h-4.2Zm-34,5.2c-2.4,2.3-5.9,3.5-10.6,3.5h-4.8v-27h5.7c4.4,0,7.7,1.1,9.9,3.4s3.3,5.6,3.3,10-1.1,7.8-3.5,10.1m3.3-22.6c-2.9-2.9-7-4.4-12.3-4.4h-10.4v33.8h9.4c5.7,0,10-1.5,13.1-4.4s4.5-7.2,4.5-12.8c.1-5.2-1.3-9.3-4.3-12.2m-54.8,15.1,4-10.5c.6-1.8,1.1-3.4,1.5-4.9a47.26,47.26,0,0,0,1.6,4.9l3.9,10.5Zm20.5,14.3-13.3-34h-3.3l-13.4,34h4L1209,445h13.6l4.2,10.8Zm-40-3.5h-14.9v-12.4h14v-3.5h-14v-10.9h14.9V422h-18.9v33.8h18.9ZM1155.6,422h-3.9v33.8h3.9Zm-30.7,19.6h7.6V452a31,31,0,0,1-6.9.8c-4.3,0-7.6-1.2-9.8-3.5s-3.3-5.8-3.3-10.4c0-4.3,1.2-7.7,3.5-10.2s5.5-3.7,9.7-3.7a22.19,22.19,0,0,1,8.8,1.9l1.5-3.5a26,26,0,0,0-10.1-2,19.35,19.35,0,0,0-9.3,2.1,13.84,13.84,0,0,0-6.1,6.1,19.5,19.5,0,0,0-2.1,9.2c0,5.5,1.4,9.8,4.3,12.8s6.8,4.6,12,4.6a57.6,57.6,0,0,0,6.4-.4,33.86,33.86,0,0,0,5.5-1.3V438h-11.5v3.6Zm-47.3-16.1h5.1q4.35,0,6.3,1.5a5.7,5.7,0,0,1,2,4.8,6.21,6.21,0,0,1-1.9,5c-1.3,1.1-3.3,1.7-6.1,1.7h-5.4Zm7,16.3,8.2,14.1h4.6l-9.2-15.2c4.5-1.6,6.8-4.6,6.8-9.1q0-4.8-3-7.2c-2-1.6-5-2.4-9.2-2.4h-9.3v33.8h3.9v-14.1h7.2Zm-25.5,10.5h-14.9v-12.4h14v-3.5h-14v-10.9h14.9V422h-18.9v33.8h18.9ZM1023.8,422h-3.7v19.4c0,1,0,2.6.1,4.8s.2,3.6.2,4h-.2l-18.4-28.3h-4.4v33.8h3.6v-19.2c0-2.8-.1-5.8-.4-9.2h.2l18.5,28.4h4.5V422Zm-41,30.3H967.9v-12.4h14v-3.5h-14v-10.9h14.9V422H963.9v33.8h18.9Zm-79.3,1.6a11.3,11.3,0,0,0,7.7,2.5,18.1,18.1,0,0,0,6.3-1.1,17.54,17.54,0,0,0,5.5-3.5l4.3,4.1h5.3l-6.9-6.7c2.1-2.3,3.7-5.6,4.7-10h-3.8a41.66,41.66,0,0,1-1.3,4.2,10.78,10.78,0,0,1-2.1,3.4l-9.4-9a18.42,18.42,0,0,0,5.2-4.2,7.78,7.78,0,0,0,1.6-4.6,7,7,0,0,0-2.1-5.4,8.38,8.38,0,0,0-5.9-1.9,9.3,9.3,0,0,0-6.3,1.9A6.8,6.8,0,0,0,904,429a6.9,6.9,0,0,0,.4,2.5,25.57,25.57,0,0,0,1.1,2.4,24.64,24.64,0,0,0,2.7,3.3,17.26,17.26,0,0,0-5.8,4.7,9.63,9.63,0,0,0,1.1,12m3-2.6a5.51,5.51,0,0,1-1.8-4.3,7.63,7.63,0,0,1,.5-2.7,6.51,6.51,0,0,1,1.6-2.2,18.74,18.74,0,0,1,3.6-2.6l10.1,9.8a12.51,12.51,0,0,1-9.2,3.6,7.3,7.3,0,0,1-4.8-1.6m2.5-25.5a5.24,5.24,0,0,1,3.3-1.1,4.77,4.77,0,0,1,3.2,1.1,3.7,3.7,0,0,1,1.2,2.9,5.23,5.23,0,0,1-1.2,3.4,16.09,16.09,0,0,1-4.2,3.2,17.61,17.61,0,0,1-2.8-3.5,5.64,5.64,0,0,1-.8-3,3.84,3.84,0,0,1,1.3-3m-40.2,26.5H853.9v-12.4h14v-3.5h-14v-10.9h14.9V422H849.9v33.8h18.9ZM833.6,422h-4v33.8h3.9V422Zm-26.9,3.5h10.7V422H792v3.5h10.7v30.3h3.9v-30.3Zm-42.6,16,4-10.5c.6-1.8,1.1-3.4,1.5-4.9a47.26,47.26,0,0,0,1.6,4.9l3.9,10.5Zm20.4,14.3-13.3-34h-3.3l-13.4,34h4l4.2-10.8h13.6l4.2,10.8Zm-38.1,0v-3.6H731.5v-30.3h-3.9v33.8h18.8Zm-31.7,0v-3.6H699.8v-30.3h-3.9v33.8h18.8Zm-51.1-14.3,4-10.5c.6-1.8,1.1-3.4,1.5-4.9a47.26,47.26,0,0,0,1.6,4.9l3.9,10.5Zm20.4,14.3-13.3-34h-3.3l-13.4,34h4l4.2-10.8h13.6l4.2,10.8Zm-48.2-30.3h10.7V422H621.1v3.5h10.7v30.3h3.9v-30.3Zm-26.4,15.7c-1.3-1.5-3.8-2.8-7.3-4.1a24.21,24.21,0,0,1-4.7-2.1,5.59,5.59,0,0,1-2.2-2.1,6,6,0,0,1-.6-2.9,4.33,4.33,0,0,1,1.8-3.7,7.92,7.92,0,0,1,4.9-1.3,20.16,20.16,0,0,1,8.1,1.8l1.2-3.4a23.37,23.37,0,0,0-9.3-1.8,12.68,12.68,0,0,0-7.8,2.3,7.28,7.28,0,0,0-2.9,6.2,8.86,8.86,0,0,0,2,6,16.7,16.7,0,0,0,6.7,4,39.71,39.71,0,0,1,5,2.1,6.28,6.28,0,0,1,2.4,2.1,5.73,5.73,0,0,1-1.3,7.1c-1.3,1-3.3,1.5-5.9,1.5a28.09,28.09,0,0,1-4.9-.5,21.46,21.46,0,0,1-4.5-1.4v3.8a22.54,22.54,0,0,0,9.3,1.6c3.7,0,6.6-.8,8.8-2.5a8.24,8.24,0,0,0,3.2-7,8.07,8.07,0,0,0-2-5.7M575.9,422h-3.7v19.4c0,1,0,2.6.1,4.8s.2,3.6.2,4h-.2l-18.4-28.3h-4.4v33.8h3.6v-19.2c0-2.8-.1-5.8-.4-9.2h.2l18.5,28.4h4.5V422Zm-42.8,0h-3.9v33.8h3.9Z" transform="translate(0.08 0.37)"/><path class="cls-2" d="M489.79,21.35S483.14,31.1,380.71,40s-208.39,14.19-276.23,20C67.54,63.06,46,77.31,34.07,92.24c-15.16,19-16.5,50.06-6.29,72.64C38.2,187.94,69,200.48,69,200.48s-7.78-13.09,3.24-22.68c9.84-8.55,26.69-15.67,76.8-20.11s194.41-17.8,246.3-23.28C437,130,462.64,102.6,475.82,75.67A144.44,144.44,0,0,0,489.79,21.35Z" transform="translate(0.08 0.37)"/><path class="cls-3" d="M395.35,134.41C437,130,462.64,102.6,475.82,75.67a144.6,144.6,0,0,0,14-54.31h0s-17.74,61.29-137,69.49C268,96.67,197.15,102.59,159.46,105.69,76.85,112.5,50.77,135.2,49.06,161.12c-1.55,23.49,20,39.35,20,39.36s-7.78-13.1,3.24-22.68c9.84-8.55,26.69-15.67,76.8-20.11S343.46,139.89,395.35,134.41Z" transform="translate(0.08 0.37)"/><path class="cls-4" d="M115.52,378.14s-3.61-10.17,5.88-18.33c10.83-9.31,24.5-13.47,68-21.12,65.07-11.44,107.2-18.22,149.83-26.77,60.5-12.14,101.59-54,75.12-90.12-12-16.35-49.26-29.32-49.26-29.32s9.3,4.55,4.41,15.63c-5.15,11.68-21.77,16.41-52.44,21.95-31.55,5.7-113.49,20.18-146.49,26.16-26.75,4.85-67.86,13.49-83.88,46.82C62.41,353.53,115.52,378.14,115.52,378.14Z" transform="translate(0.08 0.37)"/><path class="cls-5" d="M121.4,359.81c10.83-9.31,24.5-13.47,68-21.12,65.07-11.44,107.2-18.22,149.83-26.77,60.5-12.14,101.59-54,75.12-90.12-12-16.34-49.21-29.31-49.26-29.32h0a11,11,0,0,1,2.62,2c5.33,4.25,16.88,15,16.18,27.64-.82,15.09-14,39.8-57.55,48.33-20.46,4-91.92,16.47-140.77,25.38-52.84,9.65-72.44,21.84-82.33,39.74-16.09,29.1,12.28,42.61,12.28,42.61S111.91,368,121.4,359.81Z" transform="translate(0.08 0.37)"/><path class="cls-6" d="M138,520.37s13.6-8.77,63.74-20.37c50.53-11.68,70.72-16,104.06-23,35.64-7.51,54-24.94,61.4-48.58,13-41.72-28.62-59.32-28.62-59.32s6.89,5.15,1.19,13.92c-6.19,9.51-16.9,12-40.66,17.86-24.46,6-86.49,22-111.92,28.71-20.34,5.34-40.63,22.84-47.18,45.75C133.33,498.61,138,520.37,138,520.37Z" transform="translate(0.08 0.37)"/><path class="cls-7" d="M353.48,388c-1-12-14.64-18.79-14.9-18.92h0s6.88,5.16,1.19,13.92c-6.19,9.51-16.9,12-40.66,17.86-24.46,6-86.49,22-111.92,28.71-20.34,5.34-40.63,22.84-47.18,45.75-6.67,23.31-2,45.05-2,45.07s10.56-44.24,72.78-59.43c41.46-10.12,75.66-17.79,94-22.37C348.29,427.72,354.65,402,353.48,388Z" transform="translate(0.08 0.37)"/><path class="cls-8" d="M299.1,400.84c23.76-5.84,34.47-8.35,40.66-17.86,5.69-8.76-1.16-13.9-1.18-13.92l-89.13-40.8c-17.94,3.1-37.63,6.49-60,10.43-43.5,7.65-57.17,11.81-68,21.12-9.48,8.15-5.89,18.31-5.88,18.33l97.57,44.66C242.29,415.23,281,405.29,299.1,400.84Z" transform="translate(0.08 0.37)"/><path class="cls-9" d="M338.58,369.06l-1.29-.59a13.88,13.88,0,0,1-1.25,8.09c-4.42,10.07-13.49,15-32,23.06,20.34-5,30-7.82,35.72-16.64S338.6,369.08,338.58,369.06Z" transform="translate(0.08 0.37)"/><path class="cls-10" d="M317.06,230.06c30.67-5.54,47.29-10.27,52.44-21.95,4-9-1.46-13.73-3.61-15.15l-.79-.48h0L241.43,149.25c-37.85,3.52-72.52,6.68-92.38,8.44-50.11,4.44-67,11.56-76.8,20.11-11,9.58-3.25,22.65-3.24,22.68h0l140,48.85C246.69,242.61,294.62,234.12,317.06,230.06Z" transform="translate(0.08 0.37)"/><path class="cls-11" d="M365.89,193l-.37-.23a17.59,17.59,0,0,1-.39,5.44c-2.53,11.81-15.33,20-39.05,30.2,24.94-4.9,38.81-9.78,43.42-20.26C373.49,199.08,368,194.38,365.89,193Z" transform="translate(0.08 0.37)"/><path class="cls-12" d="M249.45,328.26c-17.94,3.1-37.63,6.49-60,10.43-43.5,7.65-57.17,11.81-68,21.12-9.48,8.15-5.89,18.31-5.88,18.33h0s.77-5.61,7.87-11.95c8.34-7.46,22.55-11.71,66-19.56,27.63-5,51.08-9.11,72.25-12.78Z" transform="translate(0.08 0.37)"/><path class="cls-13" d="M241.43,149.25c-37.85,3.52-72.52,6.68-92.38,8.44-50.11,4.44-67,11.56-76.8,20.11-11,9.58-3.25,22.65-3.24,22.68h0s-.51-7.18,7.11-13.88,20-12.79,70.06-17.43c24.69-2.29,72.3-6.64,120.42-11.12Z" transform="translate(0.08 0.37)"/><polygon class="cls-14" points="69.09 200.85 69.09 200.85 69.09 200.85 69.09 200.85"/><path class="cls-15" d="M489.79,21.35h0S476,120.77,395.35,129.19c-72.19,7.54-213,20.3-247,23.62s-56.75,5-74.16,16.62c-19.59,13.1-5.22,31-5.21,31s-7.77-13.1,3.24-22.68c9.84-8.55,26.69-15.67,76.8-20.11s194.41-17.8,246.3-23.28C437,130,462.64,102.6,475.82,75.67a144.44,144.44,0,0,0,14-54.32Z" transform="translate(0.08 0.37)"/><path class="cls-15" d="M147,469.12a64.05,64.05,0,0,1,42.83-36.23c36.13-9.35,98.7-25.21,114.6-29.21,16.64-4.2,33.83-6.27,39-19.2,4.15-10.43-4.72-15.34-4.86-15.42h0s6.89,5.15,1.19,13.92c-6.19,9.51-16.9,12-40.66,17.86-24.46,6-86.49,22-111.92,28.71-20.34,5.34-40.63,22.84-47.18,45.75-6.66,23.29-2,45-2,45.07S136.52,493.1,147,469.12Z" transform="translate(0.08 0.37)"/><path class="cls-15" d="M414.35,221.8c-11.85-16.14-48.29-29-49.24-29.32.94.34,37.65,13.67,49,29.68,24.06,34-14.57,74.17-77.9,85.47-23.69,4.24-86.19,15.74-140.28,25.16-50.36,8.77-67.82,13.63-79.13,24.19s-1.41,21.15-1.24,21.16c0,0-3.61-10.17,5.88-18.33,10.83-9.31,24.5-13.47,68-21.12,65.07-11.44,107.2-18.22,149.83-26.77C399.73,299.78,440.82,257.88,414.35,221.8Z" transform="translate(0.08 0.37)"/><rect class="cls-16" width="1528.18" height="540.28"/></svg>